<svg width="66" height="66" viewBox="0 0 66 66" fill="none" xmlns="http://www.w3.org/2000/svg">
<path d="M65.7625 36.9526C65.1726 41.8419 63.4959 46.5372 60.8553 50.6942C58.2147 54.8512 54.6772 58.3645 50.5021 60.9764C46.3271 63.5883 41.6203 65.2327 36.7271 65.7889C31.8338 66.3451 26.8781 65.7991 22.2233 64.1908C17.5686 62.5826 13.3328 59.9529 9.82656 56.4946C6.32035 53.0363 3.63263 48.8371 1.96047 44.2049C0.288319 39.5727 -0.325859 34.6249 0.162974 29.7245C0.651807 24.824 2.23126 20.0951 4.7855 15.8845L10.9044 19.5964C8.90405 22.8938 7.66713 26.5972 7.28431 30.4349C6.90149 34.2726 7.38247 38.1473 8.69199 41.7749C10.0015 45.4025 12.1063 48.691 14.8522 51.3993C17.598 54.1076 20.9152 56.167 24.5605 57.4265C28.2058 58.686 32.0867 59.1136 35.9188 58.678C39.7509 58.2424 43.4368 56.9547 46.7065 54.9092C49.9761 52.8637 52.7464 50.1124 54.8144 46.8569C56.8823 43.6014 58.0381 40.7815 58.5 36.9525L65.7625 36.9526Z" fill="#FC0106"/>
<path d="M6 13.282C8.5641 7.26674 21.3522 1.03959 27.9957 0.247097C34.6391 -0.5454 41.3772 0.578255 47.3579 3.47597C53.3386 6.37369 58.2933 10.9153 61.5955 16.5266C64.8976 22.1378 66.3988 28.5666 65.9094 35L58.5888 34.4828C58.9722 29.4446 57.7965 24.41 55.2105 20.0157C52.6245 15.6214 48.7443 12.0647 44.0606 9.79538C39.3769 7.52609 34.1001 6.64612 28.8974 7.26674C23.6948 7.88737 18.686 9.98067 14.7179 13.282L6 13.282Z" fill="#99FF00"/>
<path d="M5 16H42L36.5 23H5V16Z" fill="#FC0106"/>
<path d="M66 35L30 35L35.5775 28L64.4789 28L66 35Z" fill="#99FF00"/>
<path d="M35.0003 57.1258L37.3067 29.0001L44.4293 32.3759L43.3835 56.2177L35.0003 57.1258Z" fill="#99FF00"/>
<path d="M35 43L13 43L16.5 37L35 37L35 43Z" fill="#FC0106"/>
<path d="M36.5 23.0001L23.4745 38.9587L16.4988 37.0003L30.4989 18.0002L36.5 23.0001Z" fill="#FC0106"/>
</svg>
