<svg width="800" height="800" viewBox="0 0 800 800" fill="none" xmlns="http://www.w3.org/2000/svg">
<g clip-path="url(#clip0_233_153)">
<path d="M776.8 22.8406C747 -7.10625 694.733 -7.11875 664.853 22.8266L581.147 106.52C555.133 132.547 551.32 172.227 569.173 202.573L481.759 289.987C451.627 272.934 410.919 276.681 385.866 301.802L302.159 385.495C276.133 411.536 272.333 451.202 290.2 481.548L202.786 568.962C172.613 551.909 131.986 555.683 106.892 580.777L23.1984 664.47C8.24063 679.414 0 699.294 0 720.467C0 741.614 8.24062 761.508 23.2 776.441C38.1203 791.4 58 799.627 79.1734 799.627C100.347 799.627 120.227 791.4 135.147 776.441L218.853 692.747C244.88 666.706 248.68 627.041 230.812 596.694L318.053 509.453C330.106 516.586 343.759 520.667 358.147 520.667C379.28 520.667 399.161 512.427 414.12 497.467L497.788 413.773C512.747 398.827 520.987 378.947 520.987 357.8C520.987 343.427 516.908 329.773 509.788 317.72L597.028 230.48C609.081 237.6 622.734 241.68 637.122 241.68C658.255 241.68 678.136 233.453 693.095 218.494L776.763 134.8C791.759 119.853 800 99.9734 800 78.8266C800 57.6531 791.759 37.7594 776.8 22.8406ZM190.586 664.467L106.88 748.161C92.1203 762.961 66.2531 762.961 51.4938 748.161C44.0672 740.761 40 730.908 40 720.467C40 710 44.0672 700.161 51.4797 692.747L135.147 609.053C142.573 601.653 152.414 597.573 162.88 597.573C166.159 597.573 169.186 598.653 172.28 599.441L162.853 608.867C155.147 616.573 155.147 629.053 162.853 636.761C170.559 644.469 183.039 644.467 190.747 636.761L200.188 627.32C203.441 640.241 200.667 654.386 190.586 664.467ZM469.533 385.48L385.866 469.173C376.133 478.88 361.892 481.547 348.972 478.559L358.158 469.373C365.864 461.667 365.864 449.188 358.158 441.48C350.452 433.773 337.972 433.773 330.264 441.48L320.823 450.92C317.597 438 320.356 423.853 330.438 413.773L414.144 330.08C421.53 322.68 431.37 318.612 441.837 318.612C445.131 318.612 448.158 319.692 451.264 320.466L441.85 329.88C434.144 337.586 434.144 350.066 441.85 357.773C449.556 365.48 462.036 365.48 469.744 357.773L479.17 348.359C479.93 351.466 481.011 354.492 481.011 357.786C481.014 368.241 476.947 378.08 469.533 385.48ZM748.52 106.52L664.853 190.214C655.12 199.908 640.866 202.6 627.933 199.602L637.133 190.402C644.839 182.695 644.839 170.216 637.133 162.508C629.427 154.8 616.947 154.802 609.239 162.508L599.798 171.948C596.572 159.028 599.345 144.895 609.425 134.816L693.131 51.1219C700.517 43.7219 710.358 39.6422 720.825 39.6422C731.292 39.6422 741.131 43.7219 748.519 51.1219C755.933 58.5078 759.998 68.3484 759.998 78.8281C760 89.2672 755.933 99.1203 748.52 106.52Z" fill="black"/>
</g>
<defs>
<clipPath id="clip0_233_153">
<rect width="800" height="800" fill="white"/>
</clipPath>
</defs>
</svg>
