<svg width="800" height="800" viewBox="0 0 800 800" fill="none" xmlns="http://www.w3.org/2000/svg">
<g clip-path="url(#clip0_233_141)">
<path d="M366.667 533.328V233.331C366.667 214.921 351.744 199.998 333.334 199.998H33.3374C14.9282 199.998 0.00488281 214.921 0.00488281 233.331V533.328C0.00488281 551.737 14.9282 566.66 33.3374 566.66H333.334C351.744 566.66 366.667 551.737 366.667 533.328ZM300.002 499.994H66.6699V266.663H300V499.994H300.002Z" fill="black"/>
<path d="M133.336 366.662H233.335C251.745 366.662 266.668 351.739 266.668 333.33C266.668 314.92 251.745 299.997 233.335 299.997H133.336C114.927 299.997 100.004 314.92 100.004 333.33C100.004 351.739 114.927 366.662 133.336 366.662Z" fill="black"/>
<path d="M133.336 466.661H200.003C218.412 466.661 233.335 451.738 233.335 433.329C233.335 414.919 218.412 399.996 200.003 399.996H133.336C114.927 399.996 100.004 414.919 100.004 433.329C100.004 451.738 114.927 466.661 133.336 466.661Z" fill="black"/>
<path d="M566.665 366.662H666.664C685.073 366.662 699.997 351.739 699.997 333.33C699.997 314.92 685.073 299.997 666.664 299.997H566.665C548.256 299.997 533.333 314.92 533.333 333.33C533.333 351.739 548.256 366.662 566.665 366.662Z" fill="black"/>
<path d="M566.665 466.661H633.332C651.741 466.661 666.664 451.738 666.664 433.329C666.664 414.919 651.741 399.996 633.332 399.996H566.665C548.256 399.996 533.333 414.919 533.333 433.329C533.333 451.738 548.256 466.661 566.665 466.661Z" fill="black"/>
<path d="M766.663 199.997H466.666C448.257 199.997 433.333 214.92 433.333 233.329V533.326C433.333 551.735 448.257 566.659 466.666 566.659H766.663C785.072 566.659 799.996 551.735 799.996 533.326V233.329C799.997 214.921 785.072 199.997 766.663 199.997ZM733.331 499.994H500V266.663H733.331V499.994Z" fill="black"/>
<path d="M223.178 157.289C287.904 94.6757 431.94 83.4118 524.479 123.369L513.933 126.883C496.467 132.702 487.027 151.578 492.845 169.044C498.664 186.509 517.54 195.95 535.006 190.131L610.538 164.964C611.271 164.72 611.985 164.444 612.689 164.155C612.779 164.119 612.866 164.08 612.955 164.042C613.904 163.644 614.825 163.206 615.718 162.73C615.75 162.713 615.782 162.694 615.814 162.677C620.835 159.978 624.952 156.102 627.933 151.516C627.971 151.46 628.008 151.403 628.046 151.345C628.586 150.503 629.086 149.636 629.549 148.749C629.602 148.649 629.656 148.549 629.708 148.447C630.15 147.577 630.552 146.685 630.917 145.778C630.956 145.683 630.997 145.589 631.035 145.494C631.405 144.549 631.731 143.585 632.016 142.606C632.027 142.569 632.039 142.533 632.05 142.496C633.475 137.524 633.752 132.18 632.692 126.863C632.669 126.746 632.647 126.63 632.624 126.514C632.439 125.638 632.217 124.763 631.958 123.891C631.892 123.669 631.825 123.45 631.756 123.23C631.711 123.086 631.672 122.941 631.624 122.797L598.291 22.7983C592.469 5.3344 573.593 -4.10457 556.127 1.71724C538.664 7.53906 529.225 26.4154 535.046 43.8809L539.668 57.7448C422.758 12.7312 258.915 29.9638 176.826 109.374C163.595 122.174 163.245 143.277 176.044 156.508C188.842 169.739 209.946 170.089 223.178 157.289Z" fill="black"/>
<path d="M576.823 642.702C512.097 705.314 368.064 716.579 275.524 676.622L310.542 664.948C328.006 659.127 337.445 640.25 331.623 622.785C325.801 605.319 306.925 595.882 289.46 601.704L189.461 635.036C188.793 635.258 188.142 635.507 187.5 635.766C187.278 635.855 187.058 635.949 186.837 636.044C186.022 636.394 185.226 636.769 184.453 637.177C184.295 637.26 184.14 637.346 183.984 637.431C183.14 637.892 182.32 638.386 181.528 638.913C181.444 638.969 181.361 639.027 181.278 639.083C180.412 639.671 179.579 640.294 178.781 640.953C178.748 640.98 178.715 641.008 178.683 641.036C177.836 641.741 177.028 642.485 176.262 643.264C176.25 643.277 176.236 643.288 176.223 643.3C176.211 643.313 176.2 643.328 176.187 643.341C175.44 644.105 174.734 644.902 174.067 645.73C174.003 645.81 173.939 645.888 173.875 645.967C173.276 646.724 172.714 647.506 172.186 648.31C172.086 648.461 171.983 648.613 171.884 648.766C171.409 649.513 170.97 650.278 170.556 651.06C170.451 651.256 170.344 651.452 170.242 651.65C169.851 652.424 169.498 653.216 169.169 654.017C169.091 654.209 169.006 654.4 168.931 654.592C168.6 655.444 168.309 656.311 168.048 657.189C168.009 657.32 167.966 657.449 167.93 657.58C167.658 658.538 167.431 659.511 167.245 660.494C167.237 660.538 167.227 660.581 167.219 660.625C166.648 663.705 166.514 666.889 166.848 670.092C166.851 670.123 166.855 670.155 166.858 670.186C166.962 671.153 167.111 672.122 167.303 673.091C167.33 673.226 167.355 673.361 167.383 673.495C167.566 674.362 167.786 675.226 168.041 676.089C168.106 676.312 168.175 676.536 168.245 676.759C168.292 676.906 168.331 677.051 168.38 677.198L201.712 777.197C207.534 794.661 226.41 804.1 243.876 798.278C261.341 792.457 270.779 773.58 264.957 756.115L260.332 742.24C377.242 787.255 541.084 770.022 623.174 690.614C636.405 677.814 636.755 656.713 623.955 643.48C611.156 630.252 590.054 629.902 576.823 642.702Z" fill="black"/>
</g>
<defs>
<clipPath id="clip0_233_141">
<rect width="800" height="800" fill="white"/>
</clipPath>
</defs>
</svg>
