<svg width="800" height="800" viewBox="0 0 800 800" fill="none" xmlns="http://www.w3.org/2000/svg">
<path d="M708.374 280.938C702.842 278.109 696.19 278.616 691.151 282.251L404.472 489.09L219.845 315.859C213.571 309.975 203.839 309.875 197.445 315.627L43.5184 454.169C40.032 457.309 38.0396 461.781 38.0396 466.471V655.688C38.0396 664.829 45.4509 672.24 54.5919 672.24H700.837C709.978 672.24 717.389 664.829 717.389 655.688V295.673C717.389 289.458 713.907 283.768 708.374 280.938ZM110.709 639.136H71.1443V473.841L110.709 438.231V639.136ZM182.17 639.136H143.813V408.436L182.17 373.914V639.136ZM253.628 639.136H215.272V356.965L253.628 392.952V639.136ZM325.089 639.136H286.733V424.012L325.089 460.001V639.136ZM397.289 639.136H358.194V491.064L391.768 522.567C393.405 524.1 395.29 525.232 397.287 525.981L397.289 639.136ZM469.488 639.136H430.391V511.21L469.488 483.001V639.136ZM541.69 639.136H502.593V459.116L541.688 430.908V639.136H541.69ZM613.889 639.136H574.792V407.023L613.889 378.814V639.136ZM684.284 639.136H646.996V354.931L684.284 328.027V639.136Z" fill="black"/>
<path d="M797.36 134.668C794.382 130.224 789.282 127.625 783.992 127.764L679.099 130.594C671.917 130.789 665.797 135.864 664.283 142.886C662.768 149.911 666.248 157.059 672.712 160.196L697.222 172.093L407.52 378.661L210.114 199.68C200.311 190.791 185.378 190.737 175.513 199.551L8.63399 348.616C-2.01955 358.132 -2.94027 374.481 6.57528 385.133C16.0888 395.784 32.4363 396.707 43.0919 387.191L192.612 253.634L388.205 430.97C393.107 435.413 399.328 437.672 405.581 437.672C410.82 437.672 416.079 436.085 420.592 432.868L725.864 215.202L727.314 238.114C727.769 245.281 733.06 251.209 740.128 252.471C741.046 252.635 741.967 252.716 742.875 252.716C748.954 252.716 754.59 249.148 757.121 243.44L798.661 149.656C800.83 144.767 800.339 139.11 797.36 134.668Z" fill="black"/>
</svg>
