<svg width="800" height="800" viewBox="0 0 800 800" fill="none" xmlns="http://www.w3.org/2000/svg">
<path d="M500 475H450V325H500V475ZM500 600V725C500 731.63 497.366 737.989 492.678 742.678C487.989 747.366 481.63 750 475 750H325C318.37 750 312.011 747.366 307.322 742.678C302.634 737.989 300 731.63 300 725V600H350V700H450V600H500ZM300 475V325H350V475H300ZM500 200H450V100H350V200H300V75C300 68.3696 302.634 62.0107 307.322 57.3223C312.011 52.6339 318.37 50 325 50H475C481.63 50 487.989 52.6339 492.678 57.3223C497.366 62.0107 500 68.3696 500 75V200Z" fill="black"/>
<path d="M172.5 200L116.85 262.5L172.45 325H600V200H172.5ZM161.25 150H625C631.63 150 637.989 152.634 642.678 157.322C647.366 162.011 650 168.37 650 175V350C650 356.63 647.366 362.989 642.678 367.678C637.989 372.366 631.63 375 625 375H161.25C157.716 375.001 154.223 374.253 150.999 372.805C147.776 371.357 144.896 369.242 142.55 366.6L64.75 279.1C60.6873 274.525 58.4434 268.619 58.4434 262.5C58.4434 256.381 60.6873 250.475 64.75 245.9L142.55 158.4C144.896 155.758 147.776 153.643 150.999 152.195C154.223 150.747 157.716 149.999 161.25 150ZM691.55 537.5L636 600H208.45V475H635.95L691.55 537.5ZM647.2 425H183.5C176.87 425 170.511 427.634 165.822 432.322C161.134 437.011 158.5 443.37 158.5 450V625C158.5 631.63 161.134 637.989 165.822 642.678C170.511 647.366 176.87 650 183.5 650H647.25C650.784 650.001 654.277 649.253 657.501 647.805C660.724 646.357 663.604 644.242 665.95 641.6L743.75 554.1C747.813 549.525 750.057 543.619 750.057 537.5C750.057 531.381 747.813 525.475 743.75 520.9L665.95 433.4C663.604 430.758 660.724 428.643 657.501 427.195C654.277 425.747 650.784 424.999 647.25 425H647.2Z" fill="black"/>
</svg>
