<svg width="512" height="512" viewBox="0 0 512 512" fill="none" xmlns="http://www.w3.org/2000/svg">
<g clip-path="url(#clip0_233_76)">
<path d="M50.2002 0V102.769H113.374V0H50.2002ZM97.7132 87.107H65.8622V15.662H97.7132V87.107Z" fill="black"/>
<path d="M2.68848 110.863V253.314H18.3495V126.525H145.226V253.314H160.888V110.863H2.68848Z" fill="black"/>
<path d="M33.499 171.618V187.28H40.808V253.059H56.47V171.618H33.499Z" fill="black"/>
<path d="M104.499 171.618V253.059H120.161V187.28H129.558V171.618H104.499Z" fill="black"/>
<path d="M398.628 253.402V356.171H461.802V253.402H398.628ZM446.14 340.509H414.289V269.063H446.14V340.509Z" fill="black"/>
<path d="M351.115 364.266V506.717H366.777V379.928H493.654V506.717H509.316V364.266H351.115Z" fill="black"/>
<path d="M383.278 424.294V439.956H389.543V506.779H405.205V424.294H383.278Z" fill="black"/>
<path d="M453.234 424.294V506.779H468.896V439.956H478.293V424.294H453.234Z" fill="black"/>
<path d="M232.561 30.2261L221.487 41.3021L232.775 52.5891H129.558V68.2511H230.975L221.487 77.7391L232.561 88.8151L261.855 59.5201L232.561 30.2261Z" fill="black"/>
<path d="M334.205 449.353H178.592L189.658 438.286L178.585 427.21L149.291 456.505L178.585 485.799L189.658 474.724L179.949 465.015H334.205V449.353Z" fill="black"/>
<path d="M449.478 188.168L438.616 199.031V130.898H422.955V198.083L413.04 188.168L401.966 199.243L431.26 228.537L460.553 199.243L449.478 188.168Z" fill="black"/>
<path d="M287.765 0V110.688H509.316V0H287.765ZM303.426 95.026V68.251H334.204V52.589H303.426V15.662H360.018C349.654 25.726 343.195 39.79 343.195 55.344C343.195 70.897 349.653 84.962 360.018 95.027L303.426 95.026ZM398.54 95.026C376.658 95.026 358.857 77.224 358.857 55.343C358.857 33.462 376.658 15.661 398.54 15.661C420.42 15.661 438.222 33.462 438.222 55.343C438.222 77.224 420.421 95.026 398.54 95.026ZM493.654 52.589H461.587V68.251H493.654V95.026H437.062C447.426 84.962 453.885 70.896 453.885 55.343C453.885 39.79 447.426 25.726 437.062 15.661H493.654V52.589Z" fill="black"/>
<path d="M81.3047 345.214C52.0057 345.214 29.0547 369.025 29.0547 399.421C29.0547 418.577 40.0697 436.404 57.5117 446.107V462.927H73.1737V436.192L68.5317 434.124C54.0647 427.672 44.7157 414.052 44.7157 399.423C44.7157 377.449 60.4447 360.877 81.3037 360.877C102.075 360.877 118.345 377.808 118.345 399.423C118.345 415.587 114.264 427.619 94.3477 433.797L88.8367 435.506V462.929H104.499V446.802C130.814 436.192 134.008 414.918 134.008 399.424C134.007 369.025 110.858 345.214 81.3047 345.214Z" fill="black"/>
<path d="M113.893 472.327H50.2021V487.989H113.893V472.327Z" fill="black"/>
<path d="M105.54 496.341H57.5107V512.003H105.54V496.341Z" fill="black"/>
<path d="M81.5293 372.185V387.847C85.7053 387.847 89.7943 391.927 89.7943 396.104H105.456C105.456 382.53 95.1023 372.185 81.5293 372.185Z" fill="black"/>
<path d="M81.7871 270.172L52.4941 299.466L63.5681 310.541L73.1761 300.933V336.589H88.8381V299.372L100.006 310.541L111.08 299.466L81.7871 270.172Z" fill="black"/>
<path d="M398.54 23.7568C381.122 23.7568 366.952 37.9268 366.952 55.3438C366.952 72.7618 381.122 86.9318 398.54 86.9318C415.957 86.9318 430.127 72.7618 430.127 55.3438C430.127 37.9258 415.957 23.7568 398.54 23.7568ZM398.54 71.2688C389.758 71.2688 382.614 64.1238 382.614 55.3428C382.614 46.5618 389.758 39.4178 398.54 39.4178C407.321 39.4178 414.465 46.5618 414.465 55.3428C414.465 64.1238 407.321 71.2688 398.54 71.2688Z" fill="black"/>
</g>
<defs>
<clipPath id="clip0_233_76">
<rect width="512.003" height="512.003" fill="white"/>
</clipPath>
</defs>
</svg>
