<svg width="800" height="800" viewBox="0 0 800 800" fill="none" xmlns="http://www.w3.org/2000/svg">
<path d="M675 320C700.228 334.527 720.683 356.081 733.872 382.034C747.06 407.986 752.411 437.216 749.273 466.158C746.135 495.1 734.644 522.503 716.199 545.026C697.755 567.549 673.155 584.218 645.4 593C635.591 637.516 610.872 677.346 575.338 705.898C539.803 734.449 495.584 750.008 450 750H375C368.37 750 362.011 747.366 357.322 742.678C352.634 737.989 350 731.63 350 725C350 718.37 352.634 712.011 357.322 707.322C362.011 702.634 368.37 700 375 700H450C481.031 700.009 511.301 690.397 536.643 672.488C561.984 654.579 581.15 629.254 591.5 600H575C568.37 600 562.011 597.366 557.322 592.678C552.634 587.989 550 581.63 550 575V325C550 318.37 552.634 312.011 557.322 307.322C562.011 302.634 568.37 300 575 300H600C608.1 300 616.05 300.65 623.85 301.9C618.222 246.445 592.209 195.053 550.853 157.681C509.496 120.31 455.74 99.6195 400 99.6195C344.26 99.6195 290.504 120.31 249.147 157.681C207.791 195.053 181.778 246.445 176.15 301.9C184.037 300.637 192.012 300.001 200 300H225C231.63 300 237.989 302.634 242.678 307.322C247.366 312.011 250 318.37 250 325V575C250 581.63 247.366 587.989 242.678 592.678C237.989 597.366 231.63 600 225 600H200C166.949 600.037 134.811 589.157 108.58 569.05C82.3486 548.943 63.4923 520.736 54.9409 488.811C46.3894 456.885 48.6215 423.029 61.2905 392.503C73.9595 361.976 96.3559 336.489 125 320C125 247.065 153.973 177.118 205.546 125.546C257.118 73.9731 327.066 45 400 45C472.935 45 542.882 73.9731 594.454 125.546C646.027 177.118 675 247.065 675 320ZM200 350C173.478 350 148.043 360.536 129.289 379.289C110.536 398.043 100 423.478 100 450C100 476.522 110.536 501.957 129.289 520.711C148.043 539.464 173.478 550 200 550V350ZM700 450C700 423.478 689.464 398.043 670.711 379.289C651.957 360.536 626.522 350 600 350V550C626.522 550 651.957 539.464 670.711 520.711C689.464 501.957 700 476.522 700 450Z" fill="black"/>
</svg>
