<svg width="800" height="800" viewBox="0 0 800 800" fill="none" xmlns="http://www.w3.org/2000/svg">
<path d="M530.625 705.875H269.375C262.115 705.875 255.152 702.991 250.018 697.857C244.884 692.723 242 685.76 242 678.5V363.5C241.992 361.632 242.365 359.782 243.095 358.062C243.826 356.343 244.9 354.791 246.25 353.5L385 223.25C387.524 220.984 390.796 219.73 394.188 219.73C397.579 219.73 400.852 220.984 403.375 223.25L553.375 353.75C554.813 355.046 555.966 356.626 556.762 358.39C557.558 360.154 557.98 362.065 558 364V678.5C558 685.76 555.116 692.723 549.982 697.857C544.848 702.991 537.885 705.875 530.625 705.875Z" stroke="black" stroke-width="37.5" stroke-linecap="round"/>
<path d="M400 320.125C348.375 320.125 306.5 269.5 306.5 207.625C306.5 145.75 348.375 95.125 400 95.125C451.625 95.125 493.5 145.75 493.5 207.625" stroke="black" stroke-width="37.5" stroke-linecap="round"/>
<path d="M329.5 396H362.5C395.25 396 431.375 406.875 431.375 456.75C431.375 510.75 385.5 531.75 336.875 525.875C336.284 525.807 335.686 525.924 335.165 526.21C334.643 526.496 334.223 526.937 333.962 527.472C333.702 528.007 333.614 528.609 333.71 529.197C333.806 529.784 334.082 530.326 334.5 530.75L438 641.875" stroke="black" stroke-width="37.5" stroke-linecap="round"/>
<path d="M471.375 396H355.625" stroke="black" stroke-width="37.5" stroke-linecap="round"/>
<path d="M331.125 458.375H472.125" stroke="black" stroke-width="37.5" stroke-linecap="round"/>
</svg>
